#!OML:ASF E:\emotionWalksFemale\Project 1\Capture day 1\Session 1\Female1.ASF
:FULLY-SPECIFIED
:DEGREES
2557
root 8.80748 15.3866 28.5408 -4.23657 6.42273 -2.76446
lowerback 5.65971 -0.0980216 1.25229
upperback 1.32359 -0.00621138 2.30961
thorax -1.81078 -0.00453511 1.67257
lowerneck -7.2254 -1.90871 -7.36875
upperneck 47.9688 -1.46539 1.49892
head 20.2189 -1.66679 1.89017
rclavicle 1.98163e-015 -3.57812e-015
rhumerus -30.6481 4.89446 -79.9294
rradius 30.9717
rwrist 15.9713
rhand -11.5697 -47.9492
rfingers 7.12502
rthumb 14.4716 -77.4245
lclavicle 1.98163e-015 -3.57812e-015
lhumerus -31.086 7.67267 86.112
lradius 38.4398
lwrist -12.8409
lhand -5.23642 -31.6011
lfingers 7.12502
lthumb 20.5662 -2.67057
rfemur -3.04217 17.771 33.1399
rtibia 14.4117
rfoot -13.4802 -33.9687
rtoes 24.3465
lfemur -9.84605 -1.80792 -15.0563
ltibia 67.7328
lfoot -2.21498 4.30902
ltoes -7.22804
2558
root 8.78797 15.38 28.5984 -4.16607 6.24467 -2.79487
lowerback 5.68655 -0.129373 1.17716
upperback 1.32723 -0.0519911 2.30233
thorax -1.82104 -0.0271571 1.71065
lowerneck -7.19755 -1.85181 -7.51871
upperneck 47.9175 -1.40796 1.63969
head 20.1729 -1.65654 1.99779
rclavicle 1.75676e-014 1.47101e-014
rhumerus -30.5571 5.22987 -80.2592
rradius 31.0198
rwrist 15.7698
rhand -11.8219 -48.0907
rfingers 7.12502
rthumb 14.2286 -77.5834
lclavicle 1.75676e-014 1.47101e-014
lhumerus -31.0962 7.55478 86.1617
lradius 38.8701
lwrist -12.5528
lhand -5.85631 -31.7814
lfingers 7.12502
lthumb 19.9705 -2.78756
rfemur -3.07533 18.0539 33.3846
rtibia 14.8101
rfoot -14.0949 -33.9438
rtoes 25.689
lfemur -10.7816 -1.66257 -14.959
ltibia 67.9443
lfoot -3.39019 4.3517
ltoes -2.51857
2559
root 8.76679 15.3716 28.6458 -3.99214 6.29747 -2.88364
lowerback 5.73458 -0.134421 1.23531
upperback 1.30623 -0.0550747 2.22775
thorax -1.86951 -0.0290459 1.60161
lowerneck -7.18825 -1.88513 -7.46447
upperneck 47.841 -1.55059 1.79277
head 20.1232 -1.68333 2.03898
rclavicle -9.85227e-015 -5.56597e-015
rhumerus -30.453 5.00759 -80.4728
rradius 31.1078
rwrist 15.8072
rhand -11.7808 -48.1765
rfingers 7.12502
rthumb 14.2682 -77.6664
lclavicle -9.85227e-015 -5.56597e-015
lhumerus -31.2303 7.4498 86.2227
lradius 39.5845
lwrist -12.6462
lhand -6.37539 -32.0374
lfingers 7.12502
lthumb 19.4715 -2.99235
rfemur -3.27959 18.1208 33.6355
rtibia 15.2373
rfoot -14.6921 -34.0029
rtoes 27.0175
lfemur -11.9294 -1.58473 -14.8329
ltibia 68.1951
lfoot -4.1439 4.16226
ltoes -4.62799
2560
root 8.75459 15.3596 28.7034 -4.03894 6.09398 -2.97184
lowerback 5.77322 -0.115525 1.31444
upperback 1.36985 -0.0252548 2.25386
thorax -1.8262 -0.0144481 1.58186
lowerneck -7.25156 -1.85765 -7.46862
upperneck 47.8061 -1.49467 1.77467
head 20.1116 -1.66459 2.03912
rclavicle 4.37326e-015 6.36111e-015
rhumerus -30.3405 4.95759 -80.5447
rradius 31.1286
rwrist 16.0216
rhand -11.4941 -48.3077
rfingers 7.12502
rthumb 14.5445 -77.7778
lclavicle 4.37326e-015 6.36111e-015
lhumerus -30.6624 7.23017 86.335
lradius 39.3792
lwrist -12.4213
lhand -6.67065 -32.1592
lfingers 7.12502
lthumb 19.1876 -3.08573
rfemur -3.19319 18.1198 33.9601
rtibia 15.6851
rfoot -14.9891 -33.9856
rtoes 26.9653
lfemur -12.5759 -1.25542 -14.7579
ltibia 68.349
lfoot -5.10263 4.04762
ltoes -8.01273
2561
root 8.74313 15.3446 28.7606 -4.07851 5.87891 -2.99896
lowerback 5.83746 -0.14271 1.29974
upperback 1.4138 -0.0607556 2.29959
thorax -1.81612 -0.0320993 1.63998
lowerneck -7.37951 -1.80723 -7.64743
upperneck 47.8667 -1.34355 1.74751
head 20.1884 -1.64556 2.08516
rclavicle -3.97569e-016 -3.97569e-015
rhumerus -30.2529 5.25144 -80.7007
rradius 31.1205
rwrist 16.0495
rhand -11.2526 -48.2128
rfingers 7.12502
rthumb 14.7771 -77.666
lclavicle -3.97569e-016 -3.97569e-015
lhumerus -30.3455 7.217 86.4391
lradius 39.161
lwrist -12.1808
lhand -7.07226 -32.5561
lfingers 7.12502
lthumb 18.8013 -3.44469
rfemur -3.13027 18.1378 34.2018
rtibia 16.1573
rfoot -15.1994 -33.8949
rtoes 26.3805
lfemur -13.2041 -0.993909 -14.7613
ltibia 68.4284
lfoot -6.10966 4.06158
ltoes -7.95232
2562
root 8.73117 15.3322 28.8181 -4.13103 5.6982 -3.00938
lowerback 5.91739 -0.110956 1.34279
upperback 1.46107 -0.0169922 2.20535
thorax -1.81293 -0.0105404 1.51561
lowerneck -7.30011 -1.82768 -7.47118
upperneck 47.8168 -1.38783 1.63776
head 20.1251 -1.64511 1.98675
rclavicle 1.21756e-015 9.14409e-015
rhumerus -30.2564 5.30989 -81.0489
rradius 31.0509
rwrist 16.2063
rhand -11.2241 -47.9903
rfingers 7.12502
rthumb 14.8046 -77.4415
lclavicle 1.21756e-015 9.14409e-015
lhumerus -30.1796 6.93534 86.4378
lradius 39.2264
lwrist -11.9141
lhand -7.54185 -33.0988
lfingers 7.12502
lthumb 18.3496 -3.94426
rfemur -3.07475 18.0254 34.4064
rtibia 16.6659
rfoot -15.5168 -33.6369
rtoes 25.8238
lfemur -13.8756 -0.903769 -14.7894
ltibia 68.4264
lfoot -7.10525 3.9941
ltoes -5.36904
2563
root 8.7197 15.3206 28.8744 -4.20506 5.5063 -3.11812
lowerback 6.01235 -0.147896 1.41392
upperback 1.54751 -0.0614226 2.20677
thorax -1.77625 -0.0329014 1.48054
lowerneck -7.29456 -1.79054 -7.27155
upperneck 47.7314 -1.28502 1.39931
head 20.0454 -1.59851 1.8436
rclavicle 1.63997e-015 -5.1684e-015
rhumerus -30.1749 5.58421 -81.3611
rradius 30.9655
rwrist 16.6651
rhand -11.1425 -48.0173
rfingers 7.12502
rthumb 14.8832 -77.4627
lclavicle 1.63997e-015 -5.1684e-015
lhumerus -29.9267 6.87601 86.4504
lradius 39.3182
lwrist -11.6408
lhand -7.95504 -33.3698
lfingers 7.12502
lthumb 17.9521 -4.17836
rfemur -3.03157 17.8647 34.7037
rtibia 17.1929
rfoot -15.8072 -33.3901
rtoes 25.3878
lfemur -14.514 -0.80651 -14.7002
ltibia 68.3717
lfoot -8.23393 3.7255
ltoes -2.6276
